<svg width="36" height="27" viewBox="0 0 36 27" fill="none" xmlns="http://www.w3.org/2000/svg">
<path d="M2 6C2 5.44772 2.44772 5 3 5H20C20.5523 5 21 5.44772 21 6V21H3C2.44771 21 2 20.5523 2 20V6Z" fill="#D7DDF1"/>
<rect x="1" y="5" width="18" height="16" rx="1" fill="#E9ECF7"/>
<path d="M1 17H19V21H2C1.44772 21 1 20.5523 1 20V17Z" fill="#F05050"/>
<path d="M9.5 9C9.5 8.44772 9.94772 8 10.5 8C11.0523 8 11.5 8.44772 11.5 9V14C11.5 14.5523 11.0523 15 10.5 15C9.94772 15 9.5 14.5523 9.5 14V9Z" fill="#ED2828"/>
<path d="M8 12.5C7.44772 12.5 7 12.0523 7 11.5C7 10.9477 7.44772 10.5 8 10.5L13 10.5C13.5523 10.5 14 10.9477 14 11.5C14 12.0523 13.5523 12.5 13 12.5L8 12.5Z" fill="#ED2828"/>
<rect y="21" width="36" height="3" rx="1.5" fill="#808D9E"/>
<rect y="21" width="34" height="3" rx="1.5" fill="#C3CBD8"/>
<path d="M22 7H30.5L35 14V21H22V7Z" fill="#BAD8F1"/>
<path d="M21 7H29.5L34 14V21H21V7Z" fill="#E9ECF6"/>
<path d="M27.5 7L30.5 7L35 14H30.5C28.8431 14 27.5 12.6569 27.5 11L27.5 7Z" fill="#85BEEF"/>
<path d="M26.5 7L29.5 7L34 14H29.5C27.8431 14 26.5 12.6569 26.5 11L26.5 7Z" fill="#9FD4FE"/>
<path d="M27.5 7.5V7H26.5V7.5H27.5ZM35 14.5C35.2761 14.5 35.5 14.2761 35.5 14C35.5 13.7239 35.2761 13.5 35 13.5V14.5ZM26.5 7.5V11H27.5V7.5H26.5ZM30 14.5H35V13.5H30V14.5ZM26.5 11C26.5 12.933 28.067 14.5 30 14.5V13.5C28.6193 13.5 27.5 12.3807 27.5 11H26.5Z" fill="#375E7D"/>
<path d="M32 16H35V19H32C31.4477 19 31 18.5523 31 18V17C31 16.4477 31.4477 16 32 16Z" fill="#5C9FD9"/>
<path d="M31 16H34V19H31C30.4477 19 30 18.5523 30 18V17C30 16.4477 30.4477 16 31 16Z" fill="#85BEEF"/>
<path d="M35 16H31C30.4477 16 30 16.4477 30 17V18C30 18.5523 30.4477 19 31 19H35" stroke="#375E7D" stroke-linecap="round"/>
<circle cx="8.5" cy="23.5" r="3.5" fill="#2B4D66"/>
<path d="M10.5 23.5C10.5 25.433 9.65685 27 8 27C6.34315 27 5 25.433 5 23.5C5 21.567 6.34315 20 8 20C9.65685 20 10.5 21.567 10.5 23.5Z" fill="#375E7D"/>
<circle cx="8.5" cy="23.5" r="1.5" fill="white"/>
<circle cx="27.5" cy="23.5" r="3.5" fill="#2B4D66"/>
<path d="M29.5 23.5C29.5 25.433 28.6569 27 27 27C25.3431 27 24 25.433 24 23.5C24 21.567 25.3431 20 27 20C28.6569 20 29.5 21.567 29.5 23.5Z" fill="#375E7D"/>
<circle cx="27.5" cy="23.5" r="1.5" fill="white"/>
<path d="M23.0097 6.99998H27.9999L28 5.55932C28 4.08878 26.7864 2.90648 25.3301 3.00584C24.0001 3.09524 23.0001 4.28751 23.0001 5.64874L23 7L23.0097 6.99998ZM23.9223 5.55932C23.9223 4.66514 24.631 3.93978 25.5049 3.93978C25.6699 3.93978 25.8058 4.07887 25.8058 4.24777C25.8058 4.41666 25.6699 4.55576 25.5049 4.55576C24.9709 4.55576 24.534 5.00285 24.534 5.54933V6.05603C24.534 6.22493 24.3981 6.36402 24.233 6.36402C24.068 6.36402 23.9321 6.22493 23.9321 6.05603V5.55932H23.9223Z" fill="#ED2828"/>
<path d="M25.5 2C25.7742 2 26 1.8069 26 1.57243V0.427572C26 0.193096 25.7742 0 25.5 0C25.2258 0 25 0.193103 25 0.427572V1.57243C25 1.8069 25.2258 2 25.5 2Z" fill="#ED2828"/>
<path d="M22.1311 3.85248C22.2295 3.95083 22.3606 4 22.4918 4C22.623 4 22.7541 3.95083 22.8525 3.85248C23.0492 3.65578 23.0492 3.3278 22.8525 3.11476L21.8852 2.14752C21.6885 1.95083 21.3606 1.95083 21.1475 2.14752C20.9508 2.34422 20.9508 2.6722 21.1475 2.88524L22.1311 3.85248Z" fill="#ED2828"/>
<path d="M22 5.50006C22 5.22589 21.8082 5.00011 21.5754 5.00011L20.4246 5C20.1918 5 20 5.22579 20 5.49994C20 5.7741 20.1918 5.99989 20.4246 5.99989L21.5753 6C21.8082 6 22 5.77421 22 5.50006Z" fill="#ED2828"/>
<path d="M30.5862 5H29.4276C29.1931 5 29 5.22581 29 5.5C29 5.77419 29.1931 6 29.4276 6H30.5724C30.8069 6 31 5.77419 31 5.5C31 5.22581 30.8207 5 30.5862 5H30.5862Z" fill="#ED2828"/>
<path d="M28.5124 3.99999C28.6446 3.99999 28.7769 3.95081 28.876 3.85247L29.8513 2.88523C30.0496 2.68854 30.0496 2.36056 29.8513 2.14752C29.6529 1.95083 29.3223 1.95083 29.1075 2.14752L28.1487 3.13112C27.9504 3.32782 27.9504 3.65579 28.1487 3.86883C28.2479 3.95083 28.3801 4 28.5124 4V3.99999Z" fill="#ED2828"/>
</svg>
