<svg width="24" height="36" viewBox="0 0 24 36" fill="none" xmlns="http://www.w3.org/2000/svg">
<path d="M2 25.7692V36H24V26C24 23.7909 22.2091 22 20 22H5.76923C3.68754 22 2 23.6875 2 25.7692Z" fill="#BFE9EF"/>
<path d="M0 25.7692V36H22V26C22 23.7909 20.2091 22 18 22H3.76923C1.68754 22 0 23.6875 0 25.7692Z" fill="#F2F3F7"/>
<circle cx="19" cy="30" r="2" fill="#CDCDD4"/>
<path d="M19 29V22C19 20.3431 17.6569 19 16 19H7C5.34315 19 4 20.3431 4 22V27" stroke="#59C3FF" stroke-linecap="round"/>
<path d="M9 25H15V19H9V25Z" fill="#FFC2AF"/>
<path d="M10 36L9 25.6696L12 24.5L15 25.6696L14 36H10Z" fill="#ED2828"/>
<path d="M17 9H19.5C20.0523 9 20.5 9.44772 20.5 10V12C20.5 13.1046 19.6046 14 18.5 14H17V9Z" fill="#FFBFAB"/>
<path d="M7 9H4.5C3.94772 9 3.5 9.44772 3.5 10V12C3.5 13.1046 4.39543 14 5.5 14H7V9Z" fill="#FFBFAB"/>
<path d="M6 5H18V14C18 17.3137 15.3137 20 12 20C8.68629 20 6 17.3137 6 14V5Z" fill="#FFCEBF"/>
<path d="M20 9H14C12.067 9 10.5 7.433 10.5 5.5V1.5V1C10.5 0.447715 10.9477 0 11.5 0H16C18.2091 0 20 1.79086 20 4V9Z" fill="#2F3438"/>
<path d="M6 9H4V5.5C4 3.29086 5.79086 1.5 8 1.5H8.5V1C8.5 0.447715 8.94772 0 9.5 0H14C16.2091 0 18 1.79086 18 4V9H12C10.067 9 8.5 7.433 8.5 5.5H8C6.89543 5.5 6 6.39543 6 7.5V9Z" fill="#3C444A"/>
<path d="M9 20.5L7 22L8.39859 25.0769C8.62937 25.5846 9.2309 25.8054 9.73537 25.5676L12 24.5L9 20.5Z" fill="#FF6868"/>
<path d="M15 20.5L17 22L15.6014 25.0769C15.3706 25.5846 14.7691 25.8054 14.2646 25.5676L12 24.5L15 20.5Z" fill="#FF6868"/>
<path d="M10 13V12" stroke="#3C444A" stroke-width="1.5" stroke-linecap="round"/>
<path d="M14 13V12" stroke="#3C444A" stroke-width="1.5" stroke-linecap="round"/>
<path d="M11 16C11 16 11.6813 16.4306 12.2 16.4913C12.9335 16.5771 14 16 14 16" stroke="#DE6D03" stroke-width="1.5" stroke-linecap="round"/>
<path d="M5 31V31C5.55228 31 6 30.5523 6 30V29C6 27.8954 5.10457 27 4 27V27C2.89543 27 2 27.8954 2 29V30C2 30.5523 2.44772 31 3 31V31" stroke="#CDCDD4" stroke-linecap="round"/>
</svg>
