<svg width="221" height="97" viewBox="0 0 221 97" fill="none" xmlns="http://www.w3.org/2000/svg">
<path d="M103.769 62.3392C101.374 62.3392 99.1863 61.7229 97.2072 60.4904C95.2456 59.2578 93.6745 57.5999 92.494 55.5167C91.3309 53.4335 90.7493 51.1333 90.7493 48.6161C90.7493 46.7239 91.0878 44.9532 91.7649 43.304C92.4419 41.6374 93.3707 40.1792 94.5512 38.9293C95.749 37.662 97.1378 36.6725 98.7176 35.9607C100.297 35.2489 101.981 34.8931 103.769 34.8931C105.835 34.8931 107.719 35.3357 109.42 36.2211C111.139 37.1065 112.588 38.313 113.769 39.8407C114.966 41.3683 115.817 43.0957 116.321 45.0226C116.841 46.9496 116.928 48.9546 116.581 51.0378H98.5092C98.7349 51.8017 99.0821 52.4961 99.5508 53.121C100.037 53.7286 100.627 54.2147 101.322 54.5793C102.033 54.9438 102.849 55.1348 103.769 55.1522C104.672 55.1695 105.505 54.9612 106.269 54.5272C107.033 54.0932 107.684 53.5116 108.222 52.7825L115.565 54.4751C114.506 56.784 112.927 58.6762 110.826 60.1518C108.726 61.6101 106.373 62.3392 103.769 62.3392ZM98.2488 45.7257H109.316C109.09 44.8577 108.708 44.0765 108.17 43.3821C107.632 42.6877 106.981 42.1409 106.217 41.7416C105.471 41.3423 104.655 41.1427 103.769 41.1427C102.901 41.1427 102.085 41.3423 101.322 41.7416C100.575 42.1409 99.9328 42.6877 99.3946 43.3821C98.8738 44.0591 98.4919 44.8403 98.2488 45.7257Z" fill="#1D1E25"/>
<path d="M136.361 53.4335L142.819 56.9229C141.621 58.5547 140.12 59.8654 138.314 60.8549C136.509 61.8444 134.538 62.3392 132.403 62.3392C130.007 62.3392 127.82 61.7229 125.841 60.4904C123.879 59.2578 122.308 57.6086 121.128 55.5428C119.965 53.4596 119.383 51.1594 119.383 48.6422C119.383 46.7326 119.722 44.9532 120.399 43.304C121.076 41.6374 122.004 40.1792 123.185 38.9293C124.383 37.662 125.772 36.6725 127.351 35.9607C128.931 35.2489 130.615 34.8931 132.403 34.8931C134.538 34.8931 136.509 35.3878 138.314 36.3773C140.12 37.3669 141.621 38.6949 142.819 40.3615L136.361 43.8508C135.823 43.2779 135.207 42.8439 134.512 42.5488C133.835 42.2363 133.132 42.0801 132.403 42.0801C131.292 42.0801 130.294 42.3839 129.409 42.9915C128.541 43.5991 127.846 44.4063 127.325 45.4132C126.822 46.4027 126.57 47.479 126.57 48.6422C126.57 49.7879 126.831 50.8556 127.351 51.8451C127.872 52.8346 128.567 53.6332 129.435 54.2408C130.32 54.8484 131.309 55.1522 132.403 55.1522C133.15 55.1522 133.861 54.9959 134.538 54.6834C135.215 54.371 135.823 53.9543 136.361 53.4335Z" fill="#1D1E25"/>
<path d="M165.641 35.6222H172.828V61.6622H165.615L165.277 58.954C164.599 59.9609 163.731 60.7768 162.673 61.4018C161.614 62.0267 160.372 62.3392 158.949 62.3392C157.005 62.3392 155.19 61.9746 153.506 61.2455C151.823 60.5164 150.338 59.5095 149.054 58.2249C147.769 56.9402 146.762 55.456 146.033 53.772C145.321 52.0708 144.965 50.248 144.965 48.3036C144.965 46.4461 145.304 44.7101 145.981 43.0957C146.658 41.4812 147.613 40.0577 148.845 38.8251C150.078 37.5925 151.493 36.6291 153.09 35.9347C154.704 35.2403 156.44 34.8931 158.298 34.8931C159.895 34.8931 161.327 35.2316 162.594 35.9086C163.879 36.5857 164.999 37.445 165.954 38.4866L165.641 35.6222ZM158.767 55.4386C159.947 55.4386 161.015 55.1348 161.969 54.5272C162.924 53.9196 163.679 53.1037 164.235 52.0794C164.79 51.0378 165.068 49.8921 165.068 48.6422C165.068 47.3749 164.79 46.2291 164.235 45.2049C163.679 44.1807 162.924 43.3647 161.969 42.7571C161.015 42.1495 159.947 41.8457 158.767 41.8457C157.569 41.8457 156.484 42.1495 155.512 42.7571C154.539 43.3647 153.767 44.1893 153.194 45.2309C152.621 46.2552 152.335 47.3923 152.335 48.6422C152.335 49.8921 152.621 51.0378 153.194 52.0794C153.784 53.1037 154.565 53.9196 155.538 54.5272C156.51 55.1348 157.586 55.4386 158.767 55.4386Z" fill="#1D1E25"/>
<path d="M178.087 61.6622L178.061 35.6222H185.248L185.274 37.5491C186.142 36.7159 187.157 36.0649 188.32 35.5961C189.501 35.1274 190.742 34.8931 192.044 34.8931C192.999 34.8931 193.954 35.0319 194.908 35.3097L192.07 42.5749C191.445 42.3145 190.811 42.1843 190.169 42.1843C189.266 42.1843 188.442 42.4013 187.695 42.8353C186.949 43.2693 186.359 43.8595 185.925 44.606C185.491 45.3351 185.274 46.1597 185.274 47.0798V61.6622H178.087Z" fill="#1D1E25"/>
<path d="M207.98 62.3392C205.584 62.3392 203.397 61.7229 201.418 60.4904C199.456 59.2578 197.885 57.5999 196.705 55.5167C195.542 53.4335 194.96 51.1333 194.96 48.6161C194.96 46.7239 195.299 44.9532 195.976 43.304C196.653 41.6374 197.581 40.1792 198.762 38.9293C199.96 37.662 201.349 36.6725 202.928 35.9607C204.508 35.2489 206.192 34.8931 207.98 34.8931C210.046 34.8931 211.929 35.3357 213.631 36.2211C215.349 37.1065 216.799 38.313 217.979 39.8407C219.177 41.3683 220.028 43.0957 220.531 45.0226C221.052 46.9496 221.139 48.9546 220.792 51.0378H202.72C202.946 51.8017 203.293 52.4961 203.762 53.121C204.248 53.7286 204.838 54.2147 205.532 54.5793C206.244 54.9438 207.06 55.1348 207.98 55.1522C208.883 55.1695 209.716 54.9612 210.48 54.5272C211.244 54.0932 211.895 53.5116 212.433 52.7825L219.776 54.4751C218.717 56.784 217.137 58.6762 215.037 60.1518C212.936 61.6101 210.584 62.3392 207.98 62.3392ZM202.46 45.7257H213.527C213.301 44.8577 212.919 44.0765 212.381 43.3821C211.843 42.6877 211.192 42.1409 210.428 41.7416C209.681 41.3423 208.865 41.1427 207.98 41.1427C207.112 41.1427 206.296 41.3423 205.532 41.7416C204.786 42.1409 204.143 42.6877 203.605 43.3821C203.085 44.0591 202.703 44.8403 202.46 45.7257Z" fill="#1D1E25"/>
<path d="M68.5611 51.6108C71.9293 51.6261 74.6517 54.3801 74.6517 57.7721C74.6517 61.1121 71.9439 64.0161 68.6284 64.1036L63.2902 64.1036C58.6984 59.4793 62.0443 51.6108 68.5611 51.6108Z" fill="url(#paint0_linear_333_1795)"/>
<path d="M50.8851 69.2868C50.9005 72.655 53.6767 75.3774 57.096 75.3774C60.4629 75.3774 63.3903 72.6696 63.4785 69.3542L63.4785 65.2347C63.4785 65.2347 62.9304 58.1916 64.3559 55.3992C65.5427 53.0742 68.5577 51.6108 68.5577 51.6108L58.8851 51.6108C54.4668 51.6108 50.8851 55.1925 50.8851 59.6108L50.8851 69.2868Z" fill="#59C3FF"/>
<path d="M26.8103 44.9072C23.4421 44.892 20.7197 42.1379 20.7197 38.7459C20.7197 35.406 23.4275 32.502 26.743 32.4145L32.0812 32.4145C36.673 37.0388 33.3271 44.9072 26.8103 44.9072Z" fill="url(#paint1_linear_333_1795)"/>
<path d="M44.4863 27.536C44.4712 24.1678 41.7428 21.4453 38.3825 21.4453C35.0736 21.4453 32.1967 24.1532 32.11 27.4686V32.5021C32.11 32.5021 32.6486 38.3264 31.2478 41.1188C30.0814 43.4439 27.1184 44.9073 27.1184 44.9073L36.4863 44.9073C40.9046 44.9073 44.4863 41.3256 44.4863 36.9073V27.536Z" fill="#59C3FF"/>
<path d="M44.409 69.3982C44.3939 72.7455 41.6761 75.4512 38.3287 75.4512C35.0326 75.4512 32.1668 72.76 32.0805 69.4651L32.0805 64.1674C36.63 59.6179 44.409 62.9641 44.409 69.3982Z" fill="url(#paint2_linear_333_1795)"/>
<path d="M26.8103 51.6108C23.4421 51.6262 20.7197 54.4025 20.7197 57.8218C20.7197 61.1887 23.4275 64.1161 26.743 64.2043L32.0812 64.2043C32.0812 64.2043 37.9055 63.6562 40.6979 65.0816C43.0229 66.2685 44.4863 69.2835 44.4863 69.2835L44.4863 59.6108C44.4863 55.1926 40.9046 51.6108 36.4863 51.6108L26.8103 51.6108Z" fill="#257CFF"/>
<path d="M51.0186 27.4099C51.0337 24.0626 53.7515 21.3569 57.0989 21.3569C60.395 21.3569 63.2608 24.0481 63.3471 27.343L63.3471 32.6407C58.7976 37.1902 51.0186 33.844 51.0186 27.4099Z" fill="url(#paint3_linear_333_1795)"/>
<path d="M68.6173 45.1968C71.9855 45.1814 74.7079 42.4052 74.7079 38.9858C74.7079 35.6189 72.0001 32.6915 68.6847 32.6034L63.3464 32.6034C63.3464 32.6034 57.5222 33.1514 54.7297 31.726C52.4047 30.5391 50.9413 27.5241 50.9413 27.5241L50.9413 37.1968C50.9413 41.6151 54.523 45.1968 58.9413 45.1968L68.6173 45.1968Z" fill="#257CFF"/>
<defs>
<linearGradient id="paint0_linear_333_1795" x1="75.9583" y1="55.889" x2="52.3155" y2="63.9688" gradientUnits="userSpaceOnUse">
<stop stop-color="#59C3FF"/>
<stop offset="1" stop-color="#DCF2FF"/>
</linearGradient>
<linearGradient id="paint1_linear_333_1795" x1="19.4131" y1="40.6291" x2="43.0559" y2="32.5493" gradientUnits="userSpaceOnUse">
<stop stop-color="#59C3FF"/>
<stop offset="1" stop-color="#DCF2FF"/>
</linearGradient>
<linearGradient id="paint2_linear_333_1795" x1="40.1871" y1="76.7493" x2="32.1171" y2="53.2932" gradientUnits="userSpaceOnUse">
<stop stop-color="#257CFF"/>
<stop offset="1" stop-color="#CFE2FF"/>
</linearGradient>
<linearGradient id="paint3_linear_333_1795" x1="55.2405" y1="20.0589" x2="63.3105" y2="43.5149" gradientUnits="userSpaceOnUse">
<stop stop-color="#257CFF"/>
<stop offset="1" stop-color="#CFE2FF"/>
</linearGradient>
</defs>
</svg>
